<?xml version="1.0"?>
<svg xmlns="http://www.w3.org/2000/svg" xmlns:xlink="http://www.w3.org/1999/xlink" version="1.1" id="Layer_1" x="0px" y="0px" viewBox="0 0 511.707 511.707" style="enable-background:new 0 0 511.707 511.707;" xml:space="preserve" width="512px" height="512px" class=""><g><g transform="translate(1 1)">
	<g>
		<g>
			<path d="M374.427,84.04H331.76v-76.8c0-2.56-1.707-5.973-3.413-6.827c-2.56-1.707-5.973-1.707-8.533-0.853L133.57,84.217     c-2.113,0.395-3.82,1.453-4.972,3.009c-1.647,1.824-2.198,4.254-1.638,7.055v407.893c0,5.12,3.413,8.533,8.533,8.533h238.933     c5.12,0,8.533-3.413,8.533-8.533v-409.6C382.96,87.454,379.547,84.04,374.427,84.04z M314.694,20.894V84.04H174.747     L314.694,20.894z M365.894,493.641H144.027V101.107h179.2h42.667V493.641z" data-original="#000000" class="active-path" data-old_color="#000000" fill="#E5B642"/>
			<path d="M323.227,442.441H186.694c-5.12,0-8.533,3.413-8.533,8.533c0,5.12,3.413,8.533,8.533,8.533h136.533     c5.12,0,8.533-3.413,8.533-8.533C331.76,445.854,328.347,442.441,323.227,442.441z" data-original="#000000" class="active-path" data-old_color="#000000" fill="#E5B642"/>
			<path d="M289.094,425.374c5.12,0,8.533-3.413,8.533-8.533s-3.413-8.533-8.533-8.533h-68.267c-5.12,0-8.533,3.413-8.533,8.533     s3.413,8.533,8.533,8.533H289.094z" data-original="#000000" class="active-path" data-old_color="#000000" fill="#E5B642"/>
			<path d="M310.427,208.627c-2.56,0-4.267-0.853-5.973-2.56l-2.56-2.56c-3.413-3.413-3.413-8.533-0.853-11.093l18.773-17.067     c3.413-3.413,4.267-8.533,0.853-11.947s-8.533-4.267-11.947-0.853l-19.627,17.92c-7.935,8.656-8.551,21.581-2.882,31.042     L254.96,242.76v-39.253c0-14.507-10.24-26.453-24.747-28.16l-51.2-5.973c-3.413,0-6.827,1.707-8.533,5.12     c-1.707,2.56-0.853,6.827,1.707,9.387l51.199,51.199c0,0,0,0,0.001,0.001l19.627,19.627l-53.76,53.76     c-3.413,3.413-3.413,8.533,0,11.947c1.707,1.707,3.413,2.56,5.973,2.56s4.267-0.853,5.973-2.56l53.76-53.76l53.76,53.76     c1.707,1.707,3.413,2.56,5.973,2.56s4.267-0.853,5.973-2.56c3.413-3.413,3.413-8.533,0-11.947l-53.76-53.76l31.368-31.368     c3.696,2.134,7.745,3.208,12.152,3.208c7.68,0,13.653-2.56,17.92-8.533l17.92-17.92c3.413-3.413,3.413-8.533,0-11.947     s-8.533-3.413-11.947,0l-17.92,17.92C314.694,207.774,312.987,208.627,310.427,208.627z M227.654,193.267     c5.973,0.853,10.24,5.12,10.24,11.093v21.333l-35.84-35.84L227.654,193.267z" data-original="#000000" class="active-path" data-old_color="#000000" fill="#E5B642"/>
		</g>
	</g>
</g></g> </svg>
